<?xml version="1.0" encoding="UTF-8" standalone="no"?>
<!-- Created with Inkscape (http://www.inkscape.org/) -->

<svg
   xmlns:dc="http://purl.org/dc/elements/1.1/"
   xmlns:cc="http://creativecommons.org/ns#"
   xmlns:rdf="http://www.w3.org/1999/02/22-rdf-syntax-ns#"
   xmlns:svg="http://www.w3.org/2000/svg"
   xmlns="http://www.w3.org/2000/svg"
   xmlns:sodipodi="http://sodipodi.sourceforge.net/DTD/sodipodi-0.dtd"
   xmlns:inkscape="http://www.inkscape.org/namespaces/inkscape"
   width="576.96875"
   height="593.9375"
   id="svg3576"
   version="1.1"
   inkscape:version="0.48.4 r9939"
   sodipodi:docname="New document 2">
  <defs
     id="defs3578" />
  <sodipodi:namedview
     id="base"
     pagecolor="#ffffff"
     bordercolor="#666666"
     borderopacity="1.0"
     inkscape:pageopacity="0.0"
     inkscape:pageshadow="2"
     inkscape:zoom="0.35"
     inkscape:cx="308.29873"
     inkscape:cy="268.02065"
     inkscape:document-units="px"
     inkscape:current-layer="layer1"
     showgrid="false"
     fit-margin-top="0"
     fit-margin-left="0"
     fit-margin-right="0"
     fit-margin-bottom="0" />
  <metadata
     id="metadata3581">
    <rdf:RDF>
      <cc:Work
         rdf:about="">
        <dc:format>image/svg+xml</dc:format>
        <dc:type
           rdf:resource="http://purl.org/dc/dcmitype/StillImage" />
        <dc:title></dc:title>
      </cc:Work>
    </rdf:RDF>
  </metadata>
  <g
     inkscape:label="Layer 1"
     inkscape:groupmode="layer"
     id="layer1"
     transform="translate(-76.937494,-203.95535)">
    <g
       id="g3712">
      <g
         id="g3338"
         transform="translate(19.999994,317.14285)">
        <g
           id="g3320">
          <g
             id="g3303">
            <g
               id="g3287">
              <g
                 id="g3272">
                <g
                   id="g3258">
                  <g
                     id="g3245">
                    <g
                       id="g3233">
                      <g
                         id="g3222">
                        <g
                           id="g3212">
                          <g
                             id="g3203">
                            <g
                               id="g3195">
                              <g
                                 id="g3188">
                                <g
                                   id="g3182">
                                <g
                                   id="g3177">
                                <g
                                   id="g3173">
                                <g
                                   id="g3170">
                                <path
                                   id="path3050"
                                   d="m 521.37198,148.44045 37.85814,-7.36114 14.74738,0.79663 56.1337,26.7253 0,30.37906 -56.1337,26.7253 -14.74738,0.79663 -37.85814,-7.36114 -20.13409,56.08559 33.67267,19.03479 10.78855,10.21827 26.05722,57.0584 -19.25772,23.27836 -59.94898,-16.11637 -11.80092,-9.00036 -24.33468,-30.31012 -50.98118,29.84287 13.72744,36.52228 1.78299,14.86016 -16.21305,60.69684 -29.50986,5.26999 -35.70496,-51.40541 -3.33176,-14.5844 0.57418,-39.08068 -57.97712,-10.36381 -12.63953,36.92059 -8.05364,12.54688 -50.89808,35.93247 -25.95145,-15.18953 5.24318,-62.65777 6.69373,-13.34351 25.21106,-29.55945 -37.83547,-45.72179 -33.09094,20.04589 -14.12786,4.35847 -61.762182,-5.64533 -10.252145,-28.54835 43.735937,-44.58046 13.5839,-5.8598 38.06213,-6.21216 0,-59.68574 -38.06213,-6.21216 -13.5839,-5.8598 -43.735937,-44.58047 10.252145,-28.548351 61.762182,-5.645327 14.12786,4.358468 33.09094,20.045891 37.83547,-45.721797 -25.21106,-29.559454 -6.69373,-13.343501 -5.24318,-62.657771 25.95145,-15.18953 50.89808,35.932469 8.05364,12.546874 12.63953,36.920594 57.97712,-10.3638098 -0.57418,-39.0806782 3.33176,-14.5844 35.70496,-51.405417 29.50986,5.26999 16.21305,60.696847 -1.78299,14.860156 -13.72744,36.5222805 50.98118,29.8428695 24.33468,-30.3101218 11.80092,-9.0003522 59.94898,-16.116375 19.25772,23.2783574 -26.05722,57.0584106 -10.78855,10.218272 -33.67267,19.034788 z"
                                   style="fill:#787878;fill-opacity:1;stroke:#8c0000;stroke-width:7.60725975;stroke-opacity:1"
                                   inkscape:connector-curvature="0" />
                                </g>
                                </g>
                                </g>
                                </g>
                              </g>
                            </g>
                          </g>
                        </g>
                      </g>
                    </g>
                  </g>
                </g>
              </g>
            </g>
          </g>
        </g>
      </g>
      <path
         transform="matrix(6.3746179,0,0,6.3746179,-1545.4916,-3038.0928)"
         d="m 321.875,555.17468 c 0,12.52996 -10.15754,22.6875 -22.6875,22.6875 -12.52996,0 -22.6875,-10.15754 -22.6875,-22.6875 0,-12.52996 10.15754,-22.6875 22.6875,-22.6875 12.52996,0 22.6875,10.15754 22.6875,22.6875 z"
         sodipodi:ry="22.6875"
         sodipodi:rx="22.6875"
         sodipodi:cy="555.17468"
         sodipodi:cx="299.1875"
         id="path2990-1"
         style="fill:#8f0000;fill-opacity:1;fill-rule:nonzero;stroke:#8f0000;stroke-width:1.25;stroke-linejoin:bevel;stroke-miterlimit:4;stroke-opacity:1;stroke-dasharray:none"
         sodipodi:type="arc" />
      <path
         transform="matrix(0.84553259,-0.17245869,0.17245869,0.84553259,78.134882,-34.688939)"
         d="m 246.78027,588.14661 c 0,28.31301 -22.95223,51.26524 -51.26524,51.26524 -28.31301,0 -51.26524,-22.95223 -51.26524,-51.26524 0,-28.31301 22.95223,-51.26524 51.26524,-51.26524 28.31301,0 51.26524,22.95223 51.26524,51.26524 z"
         sodipodi:ry="51.26524"
         sodipodi:rx="51.26524"
         sodipodi:cy="588.14661"
         sodipodi:cx="195.51503"
         id="path3813-2"
         style="fill:none;stroke:#787878;stroke-width:40.00024796;stroke-linejoin:bevel;stroke-miterlimit:4;stroke-opacity:1;stroke-dasharray:none"
         sodipodi:type="arc" />
      <path
         sodipodi:type="arc"
         style="fill:none;stroke:#8f0000;stroke-width:1.25;stroke-linejoin:bevel;stroke-miterlimit:4;stroke-opacity:1;stroke-dasharray:none"
         id="path3038-2"
         sodipodi:cx="633.56769"
         sodipodi:cy="205.24826"
         sodipodi:rx="72.124893"
         sodipodi:ry="72.124893"
         d="m 705.69258,205.24826 c 0,39.83348 -32.29141,72.12489 -72.12489,72.12489 -39.83348,0 -72.1249,-32.29141 -72.1249,-72.12489 0,-39.83348 32.29142,-72.12489 72.1249,-72.12489 39.83348,0 72.12489,32.29141 72.12489,72.12489 z"
         transform="matrix(2.3024088,0,0,2.3024089,-1097.0175,28.368201)" />
      <path
         sodipodi:nodetypes="cccccccccccccccccccccccccccccccccsccccacccscscccccccc"
         inkscape:connector-curvature="0"
         id="path5997-8"
         d="m 413.18097,604.48104 0.84365,0.84365 c -1.16657,1.95456 0.71335,0.71335 0.71335,0.71335 l 1.37939,1.37939 c -1.13997,1.98115 0.73997,0.73997 0.73997,0.73997 l 1.3769,1.3769 c -1.18201,2.04725 0.7347,0.7347 0.7347,0.7347 l 1.06138,1.06138 c -1.24198,2.15122 0.75086,0.75086 0.75086,0.75086 l 1.16195,1.16195 c -1.16657,1.95456 0.71335,0.71335 0.71335,0.71335 l 1.37936,1.37936 c -1.13991,1.98122 0.74001,0.74001 0.74001,0.74001 l 1.37689,1.37689 c -1.18201,2.04725 0.7347,0.7347 0.7347,0.7347 l 1.06138,1.06139 c -1.24198,2.15121 0.75086,0.75085 0.75086,0.75085 l 1.18612,1.18612 c -10.41368,10.14615 -8.88747,12.69948 -15.73947,5.79947 l -28.10956,-28.10956 c 0,0 -0.8989,0.11197 1.43135,-2.62412 L 344.71816,553.5017 c 0,0 -1.75727,-2.96808 -4.86673,0.14139 -3.10946,3.10946 -12.56229,12.56216 -12.56229,12.56216 0,0 -5.80567,2.04957 -7.89803,4.16668 -1.94865,1.97152 -3.7935,7.40051 -3.7935,7.40051 l -14.05477,-14.05477 c 0,0 6.73705,-0.77288 3.97118,-11.09514 l 32.19025,-32.19025 c 0,0 20.19076,-13.70538 41.26297,-8.05909 -10.59196,-2.01503 -33.81161,9.33929 -33.07199,16.42042 0.13421,3.48804 1.41601,3.86017 4.33635,6.99363 0,0 3.98519,3.4506 0.76119,6.71449 -3.36257,3.40421 0.19892,6.34354 0.19892,6.34354 l 41.84139,41.84139 c 1.55473,-1.58582 3.7887,-2.56479 3.7887,-2.56479 l 1.34162,1.34162 c -1.14243,1.97869 0.73751,0.73751 0.73751,0.73751 l 1.37936,1.37936 c -1.13994,1.98119 0.74001,0.74001 0.74001,0.74001 l 1.37687,1.37687 c -1.18198,2.04727 0.73472,0.73472 0.73472,0.73472 l 1.06139,1.06139 c -1.24199,2.15122 0.75086,0.75086 0.75086,0.75086 l 1.16195,1.16195 c -1.1666,1.95453 0.71334,0.71335 0.71334,0.71335 l 1.37936,1.37936 c -1.13994,1.98118 0.74001,0.74 0.74001,0.74 l 1.3769,1.3769 c -1.18198,2.04727 0.73473,0.73473 0.73473,0.73473 l 1.06138,1.06138 c -1.24199,2.15122 0.75086,0.75086 0.75086,0.75086 l 1.18611,1.18612"
         style="fill:#787878;fill-opacity:1;stroke:none" />
    </g>
  </g>
</svg>
